<svg version="1.1" id="Layer_1" xmlns="http://www.w3.org/2000/svg" xmlns:xlink="http://www.w3.org/1999/xlink" x="0px" y="0px"
	 width="100%" viewBox="0 0 737 865" enable-background="new 0 0 737 865" xml:space="preserve">
<path fill="none" opacity="1.000000" stroke="#5A6D53" stroke-linecap="round" stroke-linejoin="round" stroke-width="14.000000"
	d="
M425.000000,826.000000 
	C422.072235,821.652954 418.100586,818.902527 413.010284,817.463562 
	C393.871429,812.053284 375.300140,804.931824 356.506165,798.482056 
	C354.959564,797.951233 353.321442,797.409180 352.030426,796.458679 
	C345.901947,791.946777 339.035706,789.978882 331.500061,789.966614 
	C330.512726,789.965027 329.418365,790.482178 328.489807,789.509766 
	C320.982941,781.648315 310.307922,780.150940 300.946472,776.124451 
	C289.071014,771.016846 276.981842,766.335876 265.095673,761.275269 
	C254.672180,756.837341 244.003448,753.151978 233.474915,749.064636 
	C217.400833,742.824463 200.638275,739.279175 183.499817,737.501831 
	C164.433487,735.524536 145.465103,735.062622 127.004547,741.513000 
	C120.232040,743.879456 113.815865,747.171814 109.596169,753.068787 
	C104.003342,760.884766 103.297485,769.648499 110.511124,779.491821 
	C115.784729,786.687927 123.440849,790.856628 131.025070,794.953613 
	C146.683044,803.412231 163.793091,807.723022 181.020386,811.404602 
	C190.696457,813.472473 200.582001,814.654663 210.500992,814.968811 
	C229.932083,815.584167 249.382751,815.126709 268.471771,811.356995 
	C286.439240,807.808716 304.212555,803.171143 321.449799,796.862854 
	C324.416290,795.777222 327.111969,793.278625 328.500000,790.000000 
"/>
<path fill="none" opacity="1.000000" stroke="#5A6D53" stroke-linecap="round" stroke-linejoin="round" stroke-width="12.000000"
	d="
M288.000000,670.500000 
	C283.485535,662.811584 275.674774,659.988831 267.996735,657.008423 
	C250.737808,650.308838 233.588898,643.267395 215.496674,639.014160 
	C199.361984,635.221191 183.048294,632.620850 166.515137,635.584412 
	C150.525803,638.450500 136.576492,645.169312 127.515457,659.509766 
	C121.161789,669.565430 125.475937,676.427734 132.489578,680.517883 
	C141.642838,685.855713 151.803146,688.132263 162.017120,689.901123 
	C173.225845,691.842285 184.613449,692.050049 196.000015,692.044983 
	C211.943787,692.037903 227.510742,689.220703 242.982086,685.916138 
	C254.240311,683.511475 265.334106,680.336426 276.498840,677.495300 
	C277.674194,677.196228 279.198669,677.195251 279.943146,676.443665 
	C286.893738,669.426697 296.165680,671.533936 304.500702,670.003845 
	C305.406952,669.837524 306.254333,670.230591 307.065063,669.044495 
	C310.443542,664.101624 315.647614,661.894287 320.935425,659.364990 
	C348.906311,645.985901 376.671143,632.175781 404.496735,618.493347 
	C411.185303,615.204529 418.240143,612.446533 424.404816,608.356567 
	C433.686707,602.198425 443.970734,599.177673 454.497498,596.490234 
	C454.850403,596.400146 455.252380,596.245239 455.487549,595.988586 
	C464.134033,586.555603 476.357330,584.107178 487.483551,579.460632 
	C502.312836,573.267639 517.774719,569.110229 533.533997,566.724731 
	C546.564758,564.752258 559.955505,563.119934 572.992065,567.523499 
	C580.941833,570.208862 581.542603,574.684937 577.453308,580.969604 
	C572.260132,588.951050 563.914734,592.775269 555.466858,595.910645 
	C539.556091,601.815674 522.936646,604.133423 506.000641,604.527588 
	C492.295868,604.846436 478.646973,603.981262 465.002502,602.966553 
	C460.886658,602.660400 457.544525,600.776733 455.500000,597.000000 
"/>
<path fill="none" opacity="1.000000" stroke="#5A6D53" stroke-linecap="round" stroke-linejoin="round" stroke-width="13.000000"
	d="
M342.500000,575.000000 
	C339.435455,569.101929 333.253143,567.724487 327.999969,565.000061 
	C312.977203,557.209045 297.958038,549.446533 282.568909,542.350525 
	C267.260986,535.291992 251.486969,530.007996 234.979019,527.119873 
	C224.261932,525.244934 213.500275,524.859802 202.956131,529.398071 
	C191.823685,534.189575 184.710541,545.365417 192.062164,559.467590 
	C199.738403,574.192383 213.456635,580.918091 228.506775,585.477600 
	C243.826035,590.118530 259.554871,591.769531 275.497284,590.947449 
	C286.799255,590.364685 297.978821,588.720337 309.010406,586.042908 
	C316.789948,584.154602 324.692352,582.775635 332.485535,580.938599 
	C335.077240,580.327698 338.027679,579.580688 339.894684,577.884094 
	C344.349518,573.835999 349.548279,575.440918 354.498047,574.979126 
	C355.462219,574.889160 355.946594,575.419250 356.503052,575.997070 
	C363.467621,583.229187 373.110443,584.542786 382.003632,587.489075 
	C394.877594,591.754150 408.218719,593.985840 421.485687,596.573425 
	C425.425201,597.341797 428.454803,599.939026 430.500000,603.500000 
"/>
<path fill="none" opacity="1.000000" stroke="#5A6D53" stroke-linecap="round" stroke-linejoin="round" stroke-width="10.000000"
	d="
M342.500000,377.500000 
	C339.801819,370.555359 333.269318,367.012665 328.365906,362.134796 
	C320.012085,353.824615 309.901550,347.780945 298.478607,344.576233 
	C285.468018,340.926056 272.586945,342.025116 259.989624,346.973541 
	C252.735168,349.823212 246.326111,353.694794 241.478149,359.983154 
	C233.112946,370.833801 235.974838,379.417114 246.612671,385.812592 
	C255.879669,391.383972 266.663269,392.940247 277.497833,393.539093 
	C298.092987,394.677460 317.417999,389.339233 336.525635,382.572388 
	C338.164948,381.991821 339.507294,381.240448 340.460785,379.970551 
	C341.793091,378.196167 343.473083,377.979706 345.499298,377.950836 
	C349.009033,377.900818 351.173981,374.984070 353.955383,373.420624 
	C370.054871,364.370758 385.204773,353.790009 400.391968,343.342926 
	C409.317200,337.203400 417.173859,329.508484 425.494598,322.493591 
	C427.395477,320.891052 428.512390,318.730469 429.500000,316.500000 
"/>
<path fill="none" opacity="1.000000" stroke="#5A6D53" stroke-linecap="round" stroke-linejoin="round" stroke-width="15.000000"
	d="
M275.500000,831.500000 
	C289.766876,835.965820 304.225677,840.047180 319.022278,841.813293 
	C342.350372,844.597900 365.713440,845.845459 389.057404,840.239075 
	C398.197083,838.044067 407.076019,835.269714 415.990112,832.468567 
	C417.394287,832.027283 419.030273,831.484680 419.938446,830.446167 
	C424.402161,825.342163 430.542969,825.249390 436.499634,824.497009 
	C441.668030,823.844238 446.844788,823.239075 451.988373,822.426331 
	C452.811310,822.296326 453.811768,822.282776 454.585968,821.054199 
	C459.098846,813.892822 467.098022,811.542969 474.073364,808.150818 
	C486.815643,801.954224 499.781097,796.077271 513.054749,791.147461 
	C530.085022,784.822510 547.466492,779.540466 565.470215,776.332947 
	C574.310791,774.757996 583.245789,772.910400 592.046692,771.911072 
	C604.220703,770.528748 616.981506,769.911316 628.518127,776.468079 
	C632.705566,778.848022 634.521545,781.971741 632.932800,786.476318 
	C630.563904,793.193115 626.843201,799.201599 621.481873,803.979614 
	C608.133911,815.875366 592.117493,822.333679 575.001099,826.504456 
	C550.992981,832.354431 526.563232,833.911743 502.005981,832.860535 
	C489.471863,832.323975 476.963287,830.594482 464.521698,828.845703 
	C460.639648,828.300049 457.092346,825.806641 454.500000,822.500000 
"/>
<path fill="none" opacity="1.000000" stroke="#5A6D53" stroke-linecap="round" stroke-linejoin="round" stroke-width="10.000000"
	d="
M420.500000,431.000000 
	C426.630524,436.593933 434.579437,436.309021 442.009583,437.436829 
	C453.478210,439.177551 464.806458,437.551331 475.443481,433.356659 
	C487.446106,428.623474 497.700409,422.135895 502.856140,408.636017 
	C506.799194,398.311493 498.728729,389.413483 488.022644,391.140350 
	C475.206482,393.207520 463.441437,398.603333 452.542664,405.566772 
	C443.666077,411.238190 435.200714,417.550140 426.478455,423.468231 
	C423.979858,425.163544 421.698547,426.992615 419.999115,429.499390 
	C419.787598,429.811462 420.351288,430.214569 419.523224,430.556244 
	C409.075104,434.867310 402.577698,444.322632 393.594696,450.634796 
	C382.925964,458.131470 372.810089,466.408569 361.520416,473.034760 
	C359.378021,474.292175 357.467499,475.959473 355.518066,477.522552 
	C354.862946,478.047821 354.519684,478.886322 353.501984,479.015625 
	C342.614349,480.399109 333.002991,486.182495 322.028290,487.704071 
	C311.341034,489.185822 300.678192,490.040070 290.007263,489.382019 
	C273.053101,488.336548 256.341217,485.479706 240.522415,478.945740 
	C232.204971,475.510254 224.490768,470.896820 218.536133,463.968933 
	C213.393494,457.985748 209.520782,451.500854 211.951843,442.986237 
	C213.036118,439.188629 215.461563,436.641418 218.508530,434.512207 
	C223.607941,430.948700 229.112823,428.671661 235.498444,428.454163 
	C252.217331,427.884766 267.142059,433.866058 282.022644,440.448853 
	C301.076813,448.877930 318.289703,460.579315 336.503967,470.492737 
	C340.403961,472.615387 343.670197,475.329803 345.500000,479.500000 
"/>
<path fill="none" opacity="1.000000" stroke="#5A6D53" stroke-linecap="round" stroke-linejoin="round" stroke-width="21.000000"
	d="
M456.000000,726.000000 
	C456.896851,720.628296 460.161896,716.942383 464.497986,713.997009 
	C478.627472,704.399353 493.187988,695.512146 507.963409,686.936951 
	C523.300659,678.035767 539.153137,670.596680 556.491272,666.463379 
	C573.118469,662.499573 589.422241,662.322205 605.516113,668.960999 
	C617.446899,673.882385 625.232727,684.020142 624.951965,695.498840 
	C624.742493,704.062439 620.239868,710.478149 614.024414,716.027344 
	C600.593567,728.018494 584.051270,732.337158 567.000000,735.500000 
	C549.098328,738.820557 530.968689,738.143311 513.013733,737.229797 
	C496.914795,736.410645 480.843292,733.909241 464.997223,730.512939 
	C464.519196,730.410461 463.873962,730.697571 463.518555,730.470947 
	C455.908539,725.616760 447.560516,725.636230 438.994568,726.442261 
	C434.716217,726.844849 431.731842,723.335815 427.997742,722.006409 
	C410.169464,715.658813 392.222656,709.624695 374.535706,702.906006 
	C360.856934,697.710022 347.439240,691.805176 334.033966,685.922607 
	C329.526855,683.944763 324.915802,682.158142 320.403748,680.224548 
	C314.940308,677.883240 310.413544,674.776550 306.500000,670.500000 
"/>
<path fill="none" opacity="1.000000" stroke="#5A6D53" stroke-linecap="round" stroke-linejoin="round" stroke-width="14.000000"
	d="
M525.000000,478.000000 
	C511.960846,479.574463 499.309906,482.650208 487.521545,488.543121 
	C476.779694,493.912903 466.069275,499.698181 457.228149,507.750488 
	C452.338654,512.203735 447.212402,515.558960 441.530884,518.558533 
	C437.635620,520.614990 435.054321,524.379639 431.581757,527.104187 
	C415.146057,539.999756 398.586731,552.585999 379.558258,561.622620 
	C373.898193,564.310608 368.434265,567.363525 362.533173,569.588013 
	C359.899689,570.580750 357.405457,572.267029 356.000000,575.000000 
"/>
<path fill="none" opacity="1.000000" stroke="#5A6D53" stroke-linecap="round" stroke-linejoin="round" stroke-width="10.000000"
	d="
M337.000000,190.000000 
	C339.205414,193.808167 343.093201,195.575134 346.451691,198.065155 
	C358.568665,207.048828 371.731628,214.529510 383.496002,224.004974 
	C383.861023,224.298965 384.164795,224.956070 384.500275,224.958221 
	C397.055573,225.039200 406.758667,234.210358 418.984070,235.636536 
	C426.371277,236.498291 433.676788,236.633743 440.984894,235.857651 
	C443.009216,235.642685 445.176910,234.536697 447.048859,233.062012 
	C451.879272,229.256683 452.545807,225.526398 448.478699,221.019226 
	C440.778625,212.486069 430.941101,210.415070 420.000763,212.005234 
	C412.885101,213.039505 406.056366,214.900894 399.992462,218.988831 
	C397.391083,220.742538 394.240112,221.906784 393.500000,225.500000 
"/>
<path fill="none" opacity="1.000000" stroke="#5A6D53" stroke-linecap="round" stroke-linejoin="round" stroke-width="11.000000"
	d="
M382.500000,155.000000 
	C385.345032,157.055496 388.526031,157.570145 392.000275,157.552490 
	C399.900238,157.512314 407.806152,157.689911 415.495026,155.482727 
	C420.552765,154.030838 425.449860,152.074677 428.957001,147.963318 
	C432.021088,144.371323 430.553314,140.197800 426.003448,138.490829 
	C416.420105,134.895508 407.287689,137.671539 398.564545,141.161301 
	C392.009216,143.783798 385.530670,146.682693 382.094269,154.317383 
	C380.775482,157.247314 374.253265,157.908432 370.594940,156.285934 
	C364.148438,153.426849 357.333527,151.671265 350.900848,148.715775 
	C343.442230,145.288910 336.891754,141.108704 331.492523,135.006607 
	C329.539032,132.798782 327.500000,130.666672 325.500000,128.500000 
"/>
<path fill="none" opacity="1.000000" stroke="#5A6D53" stroke-linecap="round" stroke-linejoin="round" stroke-width="11.000000"
	d="
M435.500000,727.000000 
	C434.464630,732.273560 431.500946,735.974548 427.047424,739.068298 
	C404.024445,755.061523 380.225830,769.727173 354.980774,781.960327 
	C350.530670,784.116699 346.850464,787.002380 344.000000,791.000000 
"/>
<path fill="none" opacity="1.000000" stroke="#5A6D53" stroke-linecap="round" stroke-linejoin="round" stroke-width="10.000000"
	d="
M332.000000,260.500000 
	C324.970673,267.777954 315.491211,270.643646 306.434845,273.813904 
	C298.026306,276.757385 289.084747,277.896851 279.996765,277.598053 
	C274.174316,277.406677 265.292847,271.459320 263.544556,263.989563 
	C262.083405,257.746582 266.283203,252.029175 274.005219,249.516037 
	C291.953094,243.674896 309.355438,244.225494 326.058899,253.898315 
	C327.446228,254.701721 329.196075,255.190384 329.929657,256.538269 
	C331.656830,259.711853 334.183441,260.531738 337.503784,260.024750 
	C338.437836,259.882141 339.188843,260.147705 340.049408,260.946777 
	C350.924072,271.044647 363.616486,278.733826 375.498779,287.501648 
	C386.743256,295.798859 399.077545,302.214172 411.481445,308.536377 
	C416.976746,311.337311 423.047668,314.405762 428.554352,314.945526 
	C436.339996,315.708679 442.345825,320.566528 449.980682,321.224304 
	C456.977173,321.827118 463.950043,323.473145 470.992645,322.908417 
	C478.404449,322.314056 485.935120,321.754303 492.507751,317.511993 
	C499.846161,312.775360 500.863708,303.418823 492.674133,298.225433 
	C481.926056,291.409607 471.427551,292.697021 461.088348,296.726654 
	C451.249786,300.561157 442.957733,307.396698 435.500000,315.000000 
"/>
<path fill="none" opacity="1.000000" stroke="#5A6D53" stroke-linecap="round" stroke-linejoin="round" stroke-width="11.000000"
	d="
M525.000000,476.500000 
	C524.895020,478.824127 526.601562,478.333649 527.997375,478.519562 
	C537.549194,479.791870 542.289185,488.881622 535.543030,497.035614 
	C526.335449,508.164795 514.107910,513.741699 500.498688,516.994446 
	C487.436737,520.116455 474.193207,518.812439 461.001312,518.452209 
	C457.837372,518.365906 455.604889,516.158508 453.500000,514.000000 
"/>
<path fill="none" opacity="1.000000" stroke="#5A6D53" stroke-linecap="round" stroke-linejoin="round" stroke-width="8.000000"
	d="
M356.000000,480.000000 
	C360.574036,485.670105 367.460144,487.757385 373.552032,490.899109 
	C391.012024,499.903503 409.522736,506.466522 428.056366,512.835938 
	C431.990875,514.188110 436.073425,514.705078 439.000000,518.000000 
"/>
<path fill="none" opacity="1.000000" stroke="#5A6D53" stroke-linecap="round" stroke-linejoin="round" stroke-width="8.000000"
	d="
M347.500000,378.500000 
	C351.904572,385.559387 358.419800,390.595947 364.533630,395.961670 
	C377.863312,407.660248 391.213837,419.360229 407.471497,427.060211 
	C409.348572,427.949249 410.833313,429.666687 412.500000,431.000000 
"/>
<path fill="none" opacity="1.000000" stroke="#5A6D53" stroke-linecap="round" stroke-linejoin="round" stroke-width="10.000000"
	d="
M371.000000,157.500000 
	C369.886841,164.317184 363.548584,166.911163 359.289551,170.767563 
	C352.827942,176.618317 345.581024,181.686371 338.999390,187.499313 
	C336.401825,189.793518 333.110168,189.281204 330.455505,187.053024 
	C320.068359,178.334686 308.089600,173.889801 294.525818,176.154648 
	C287.605469,177.310181 283.995636,184.608612 288.046570,191.974380 
	C290.573273,196.568649 295.201630,198.965988 300.012299,199.343445 
	C311.638824,200.255661 322.183105,196.977112 331.000000,189.000000 
"/>
<path fill="none" opacity="1.000000" stroke="#5A6D53" stroke-linecap="round" stroke-linejoin="round" stroke-width="11.000000"
	d="
M368.000000,70.500000 
	C361.333344,70.500000 354.660156,70.683418 348.001831,70.447884 
	C341.477051,70.217079 334.992676,69.473572 328.487335,70.944008 
	C325.058929,71.718956 321.500000,69.566490 318.000000,71.000000 
"/>
<path fill="none" opacity="1.000000" stroke="#5A6D53" stroke-linecap="round" stroke-linejoin="round" stroke-width="8.000000"
	d="
M368.000000,21.000000 
	C368.833923,30.988878 368.634888,40.995445 368.807220,50.994705 
	C368.913208,57.146759 366.895142,63.385715 369.000000,69.500000 
"/>
<path fill="none" opacity="1.000000" stroke="#5A6D53" stroke-linecap="round" stroke-linejoin="round" stroke-width="11.000000"
	d="
M420.000000,71.000000 
	C416.666656,69.937096 413.333496,71.022995 409.999969,71.018204 
	C399.164642,71.002617 388.323334,70.436440 377.496979,71.468399 
	C374.583099,71.746155 371.620239,71.707565 368.465363,69.245712 
	C368.943878,86.501114 367.080292,102.983978 368.500000,119.500000 
"/>
<path fill="none" opacity="1.000000" stroke="#5A6D53" stroke-linecap="round" stroke-linejoin="round" stroke-width="9.000000"
	d="
M384.000000,225.500000 
	C380.161438,231.942078 372.942871,234.107681 367.551514,238.562347 
	C358.466125,246.069199 347.426971,251.001785 339.500000,260.000000 
"/>
<path fill="none" opacity="1.000000" stroke="#5A6D53" stroke-linecap="round" stroke-linejoin="round" stroke-width="6.000000"
	d="
M399.000000,40.500000 
	C390.759918,48.088131 383.704620,56.886269 375.000000,64.000000 
"/>
<path fill="none" opacity="1.000000" stroke="#5A6D53" stroke-linecap="round" stroke-linejoin="round" stroke-width="6.000000"
	d="
M363.000000,62.999996 
	C355.166656,55.499996 347.333344,47.999996 339.500000,40.499996 
"/>
<path fill="none" opacity="1.000000" stroke="#5A6D53" stroke-linecap="round" stroke-linejoin="round" stroke-width="8.000000"
	d="
M375.000000,74.500000 
	C379.250519,81.967995 386.453156,86.724365 392.133728,92.876511 
	C394.307281,95.230499 396.349731,98.083633 399.500000,99.500000 
"/>
<path fill="none" opacity="1.000000" stroke="#5A6D53" stroke-linecap="round" stroke-linejoin="round" stroke-width="8.000000"
	d="
M362.000000,76.000000 
	C354.805389,83.805389 347.586578,91.586586 339.500000,98.500000 
"/>
</svg>